<?xml version="1.0" encoding="UTF-8"?>
<svg width="140px" height="70px" viewBox="0 0 140 70" version="1.1" xmlns="http://www.w3.org/2000/svg" xmlns:xlink="http://www.w3.org/1999/xlink">
    <!-- Generator: Sketch 46.2 (44496) - http://www.bohemiancoding.com/sketch -->
    <title>logo-safran-white-path</title>
    <desc>Created with Sketch.</desc>
    <defs>
        <filter x="-5.3%" y="-5.2%" width="114.4%" height="114.4%" filterUnits="objectBoundingBox" id="filter-1">
            <feOffset dx="0" dy="2" in="SourceAlpha" result="shadowOffsetOuter1"></feOffset>
            <feGaussianBlur stdDeviation="2" in="shadowOffsetOuter1" result="shadowBlurOuter1"></feGaussianBlur>
            <feColorMatrix values="0 0 0 0 0   0 0 0 0 0   0 0 0 0 0  0 0 0 0.5 0" type="matrix" in="shadowBlurOuter1" result="shadowMatrixOuter1"></feColorMatrix>
            <feMerge>
                <feMergeNode in="shadowMatrixOuter1"></feMergeNode>
                <feMergeNode in="SourceGraphic"></feMergeNode>
            </feMerge>
        </filter>
    </defs>
    <g id="Page-1" stroke="none" stroke-width="1" fill="none" fill-rule="evenodd">
        <g id="logo-safran-white-path" filter="url(#filter-1)" transform="translate(0.000000, -7.000000)">
            <path d="M39.6120001,21.976 C41.1240001,25.432 40.1160001,29.824 37.0920001,32.344 C35.5800001,33.496 34.3560001,33.928 33.2760001,32.128 C33.0600001,31.552 33.9960001,31.264 34.9320001,30.328 C36.3000001,29.032 36.9480001,28.24 37.2360001,26.152 C37.3800001,25 37.3800001,23.92 36.8040001,22.768 C36.3000001,21.76 35.0040001,21.04 34.2120001,20.968 L32.9160001,20.824 C32.4840001,21.112 31.5480001,20.968 31.5480001,20.968 C30.9000001,21.112 27.3000001,21.76 27.0120001,22.264 C26.7240001,22.48 26.5800001,22.624 26.2920001,22.768 C26.0760001,22.912 25.5720001,23.056 25.2840001,23.056 C24.9240001,23.056 24.7080001,23.272 24.5640001,23.776 L22.8360001,25.072 C21.7560001,26.008 18.4440001,27.52 16.5720001,30.76 C14.7720001,34.072 16.4280001,37.096 18.8040001,38.968 C20.0280001,39.832 21.3960001,40.552 22.6200001,41.272 C23.1240001,41.632 23.6280001,41.848 24.1320001,42.136 C26.7960001,43.504 29.2440001,45.088 31.4760001,47.032 C33.2040001,48.544 34.4280001,50.344 35.2920001,52.432 C35.9400001,54.232 35.5800001,55.744 34.6440001,57.112 C32.4840001,60.136 27.0120001,62.512 22.4040001,63.232 C19.3080001,63.736 16.2120001,63.664 13.1160001,63.16 C7.86000005,62.224 4.47600005,58.552 4.26000005,53.584 C4.18800005,51.856 8.79600005,47.248 9.15600005,47.104 C10.8840001,46.24 13.0440001,48.4 11.8200001,48.832 C9.44400005,49.552 7.64400005,50.992 7.42800005,53.8 C7.28400005,55.96 8.07600005,59.2 10.0920001,60.424 C11.5320001,61.288 12.9720001,61.72 14.3400001,61.792 C15.9960001,61.864 17.6520001,61.792 19.3080001,61.504 C23.1960001,60.928 26.9400001,59.056 29.4600001,57.4 C30.4680001,56.752 31.4040001,55.744 32.0520001,54.736 C32.8440001,53.512 33.1320001,52.144 32.4120001,50.632 C31.8360001,49.264 30.8280001,48.256 29.7480001,47.248 C27.8760001,45.52 25.6440001,44.152 23.3400001,43.072 C21.7560001,42.28 20.3160001,41.272 18.8760001,40.336 C17.5800001,39.544 14.9160001,37.6 13.9080001,35.224 C12.7560001,32.632 12.9720001,30.184 14.4120001,28.024 C15.1320001,26.8 16.1400001,25.792 17.2920001,24.928 C18.8040001,23.776 20.1720001,22.768 21.8280001,21.976 C26.0040001,20.032 28.1640001,19.168 31.1880001,18.88 C33.4200001,18.664 36.5160001,18.88 38.2440001,20.176 C38.8200001,20.608 39.3240001,21.328 39.6120001,21.976 Z M67.692,42.424 C66.972,43.504 65.82,44.44 64.884,45.088 C64.524,45.376 64.02,45.592 63.804,45.736 C63.588,45.952 63.3,46.312 62.94,46.456 C62.868,46.528 62.364,47.104 62.148,47.176 L61.068,48.112 L59.34,49.408 C58.764,50.056 58.116,50.2 57.396,50.704 C56.964,50.92 56.748,50.848 56.388,51.064 C56.244,51.136 55.884,51.28 55.668,51.28 C55.596,51.28 55.236,51.424 55.02,51.424 C54.732,51.424 54.084,51.568 53.796,51.496 C53.652,51.424 53.22,51.424 53.076,51.28 C52.86,51.208 52.716,50.92 52.5,50.848 C52.068,50.272 51.564,49.984 51.276,49.336 C50.844,48.904 50.916,48.76 50.7,48.4 C50.556,48.328 50.556,48.184 50.484,48.04 C49.98,48.328 49.98,49.048 49.476,49.048 C49.332,49.192 49.26,49.408 49.116,49.48 C48.252,50.128 47.1,51.064 45.948,51.568 C44.796,52.144 43.572,52.144 42.492,51.712 C42.348,51.712 42.132,51.712 41.916,51.64 C41.772,51.496 41.196,51.136 40.764,50.92 C40.116,50.056 39.9,49.12 40.188,48.04 C40.404,47.536 40.548,47.176 40.692,46.744 C40.764,46.672 40.764,46.672 40.764,46.6 C40.836,46.168 41.052,45.808 41.196,45.304 L41.7,44.44 C41.988,44.08 42.132,43.72 42.276,43.576 C43.068,42.352 44.004,41.488 44.868,40.408 C45.732,39.472 46.956,38.608 48.324,38.464 C49.836,38.752 51.564,39.04 51.852,40.696 C52.068,41.704 51.492,42.352 51.132,43.072 C51.708,43 52.212,42.424 53.076,42.496 C53.508,42.64 53.796,43 53.94,43.504 C53.94,43.504 54.012,44.296 53.796,44.872 C53.724,44.944 53.724,45.088 53.652,45.232 C53.436,46.24 53.436,47.32 53.868,48.328 C53.94,48.616 54.156,48.904 54.516,49.12 C54.66,49.192 54.804,49.192 55.02,49.12 C55.236,49.048 55.524,49.048 55.812,48.904 C56.964,48.4 58.116,47.536 59.124,46.816 C60.06,46.24 61.14,45.592 62.148,44.872 C63.876,43.792 63.732,43.936 65.388,42.856 C65.892,42.424 66.468,42.064 67.188,41.632 L67.404,41.776 L67.692,42.424 Z M50.124,44.44 C50.196,44.44 50.484,44.08 50.484,44.08 L50.412,44.08 C48.828,43.936 49.404,40.768 49.476,40.696 C47.316,41.056 44.796,44.44 44.004,45.808 C43.356,46.96 42.708,48.184 42.348,49.624 C43.14,49.624 44.436,49.552 45.156,49.264 C46.092,48.904 46.74,48.4 47.46,47.608 C48.54,46.456 49.044,45.592 50.124,44.44 Z M78.996,53.296 C78.564,53.08 78.492,52.792 77.916,52.504 C77.628,51.784 77.268,51.064 77.484,50.128 L78.06,47.176 C78.204,46.384 78.492,45.592 78.492,44.8 C78.636,43.792 78.996,42.784 79.14,41.848 C79.284,40.84 79.5,39.904 79.644,38.896 C79.716,38.752 79.716,38.464 79.788,38.392 C79.932,38.176 80.22,38.032 80.436,38.032 C81.156,37.744 81.732,38.104 82.02,39.184 C82.236,39.76 82.308,40.408 82.236,41.056 C82.236,41.272 82.092,41.488 82.092,41.848 C82.308,41.56 82.596,41.344 82.668,41.128 C83.028,40.48 83.46,40.12 83.964,39.616 C84.612,38.68 85.404,38.104 86.196,37.6 C87.132,36.88 88.14,36.88 89.004,37.384 C89.364,37.672 89.724,37.96 90.012,38.248 C90.084,38.32 90.156,38.464 90.3,38.464 C90.588,38.68 90.732,38.968 90.876,39.328 L90.804,39.688 C90.804,39.688 90.372,39.904 89.436,39.472 C89.004,39.472 88.572,39.4 88.14,39.76 C87.852,40.12 87.42,40.264 86.988,40.552 C86.772,40.624 86.628,40.912 86.484,41.128 C86.052,41.488 85.62,41.848 85.26,42.208 L83.892,44.008 C83.388,44.728 82.812,45.448 82.308,46.312 C81.876,47.32 81.3,48.112 80.868,48.976 C80.58,49.696 80.508,50.344 80.292,50.992 C80.148,51.496 80.148,52 80.004,52.504 C79.86,53.368 79.572,53.512 78.996,53.296 Z M117.923994,42.663141 C118.03417,42.794211 118.137817,42.9317393 118.236,43.072 C118.308,43.144 118.308,43.144 118.308,43.216 C118.164,43.792 118.092,44.296 118.02,44.872 C117.948,45.376 117.948,45.736 117.804,46.24 C117.66,46.744 117.444,47.176 117.3,47.68 C117.3,47.752 117.3,47.824 117.228,47.968 C117.3,47.896 117.3,47.968 117.3,47.896 C118.02,46.816 118.812,45.808 119.676,44.944 C120.108,44.44 120.612,43.936 121.188,43.504 C121.548,43.288 121.62,43.288 122.34,43.216 C122.916,43.216 123.06,43.288 123.276,43.36 C123.492,43.36 123.636,43.504 124.788,44.08 C124.86,44.44 124.788,44.8 125.076,44.944 C125.148,44.944 125.076,45.16 125.076,45.376 C125.292,46.024 125.436,46.672 125.508,47.32 C125.508,47.896 125.436,48.472 125.364,49.048 C125.364,49.192 125.436,49.408 125.364,49.624 C125.436,50.128 125.436,50.704 125.436,51.208 L125.652,51.928 C125.652,52.072 125.868,52.288 125.94,52.36 L126.156,52.36 C126.228,52.288 126.444,52.216 127.668,51.568 C128.1,51.424 128.532,51.208 128.892,50.92 L135.588,44.512 C136.02,44.512 136.308,44.8 135.948,45.232 L135.3,46.24 C135.156,46.6 135.156,46.888 135.012,47.176 C134.868,47.464 134.58,47.824 134.292,48.04 L133.068,49.48 C132.996,49.624 132.996,49.84 132.636,50.056 C132.636,50.056 132.636,50.2 132.708,50.272 C132.636,50.344 132.42,50.344 132.42,50.416 C132.132,50.992 131.556,51.424 131.052,51.928 C130.62,52.432 129.972,52.936 129.324,53.368 C128.316,54.088 127.092,54.088 126.012,54.304 L125.94,54.304 C125.436,54.088 125.22,54.088 124.86,53.656 C124.212,53.152 123.636,52.504 123.348,51.568 C122.988,50.344 122.7,48.976 122.844,47.464 C122.844,47.104 122.916,46.6 122.916,46.168 C122.772,46.024 122.628,45.952 122.556,45.736 C122.34,46.528 122.052,46.744 121.548,46.816 C121.404,47.392 121.044,47.752 120.54,47.968 C120.612,48.544 120.108,48.616 119.892,48.976 C119.82,49.192 119.388,49.552 119.532,49.552 L119.172,50.056 C119.1,50.056 117.732,52.72 117.372,53.512 C117.084,53.872 116.796,54.088 116.436,54.088 L116.22,54.592 C116.076,54.664 116.076,54.736 116.004,54.808 C115.716,55.384 115.428,55.456 114.852,55.312 C114.42,55.168 113.34,54.088 113.484,53.512 C113.7,52.288 113.844,51.136 114.132,49.84 C114.492,48.616 114.924,47.32 115.212,46.024 C115.300047,45.6718116 115.364167,45.3315867 115.418991,44.993572 C115.373551,45.0256895 115.328531,45.0571707 115.284,45.088 C114.924,45.376 114.42,45.592 114.204,45.736 C113.988,45.952 113.7,46.312 113.34,46.456 C113.268,46.528 112.764,47.104 112.548,47.176 L111.468,48.112 L109.74,49.408 C109.164,50.056 108.516,50.2 107.796,50.704 C107.364,50.92 107.148,50.848 106.788,51.064 C106.644,51.136 106.284,51.28 106.068,51.28 C105.996,51.28 105.636,51.424 105.42,51.424 C105.132,51.424 104.484,51.568 104.196,51.496 C104.052,51.424 103.62,51.424 103.476,51.28 C103.26,51.208 103.116,50.92 102.9,50.848 C102.468,50.272 101.964,49.984 101.676,49.336 C101.244,48.904 101.316,48.76 101.1,48.4 C100.956,48.328 100.956,48.184 100.884,48.04 C100.38,48.328 100.38,49.048 99.876,49.048 C99.732,49.192 99.66,49.408 99.516,49.48 C98.652,50.128 97.5,51.064 96.348,51.568 C95.196,52.144 93.972,52.144 92.892,51.712 C92.748,51.712 92.532,51.712 92.316,51.64 C92.172,51.496 91.596,51.136 91.164,50.92 C90.516,50.056 90.3,49.12 90.588,48.04 C90.804,47.536 90.948,47.176 91.092,46.744 C91.164,46.672 91.164,46.672 91.164,46.6 C91.236,46.168 91.452,45.808 91.596,45.304 L92.1,44.44 C92.388,44.08 92.532,43.72 92.676,43.576 C93.468,42.352 94.404,41.488 95.268,40.408 C96.132,39.472 97.356,38.608 98.724,38.464 C100.236,38.752 101.964,39.04 102.252,40.696 C102.468,41.704 101.892,42.352 101.532,43.072 C102.108,43 102.612,42.424 103.476,42.496 C103.908,42.64 104.196,43 104.34,43.504 C104.34,43.504 104.412,44.296 104.196,44.872 C104.124,44.944 104.124,45.088 104.052,45.232 C103.836,46.24 103.836,47.32 104.268,48.328 C104.34,48.616 104.556,48.904 104.916,49.12 C105.06,49.192 105.204,49.192 105.42,49.12 C105.636,49.048 105.924,49.048 106.212,48.904 C107.364,48.4 108.516,47.536 109.524,46.816 C110.46,46.24 111.54,45.592 112.548,44.872 C114.150788,43.8702575 114.14304,43.921558 115.454971,43.0724239 C115.39452,42.840878 115.44726,42.524439 115.5,42.208 C115.572,41.704 115.716,41.56 116.148,41.632 C116.501492,41.6591917 116.813907,41.7685378 117.093002,41.93289 C117.250355,41.8354179 117.415022,41.7357868 117.588,41.632 L117.804,41.776 L118.092,42.424 C118.03831,42.5045343 117.982219,42.5842678 117.923994,42.663141 Z M100.524,44.44 C100.596,44.44 100.884,44.08 100.884,44.08 L100.812,44.08 C99.228,43.936 99.804,40.768 99.876,40.696 C97.716,41.056 95.196,44.44 94.404,45.808 C93.756,46.96 93.108,48.184 92.748,49.624 C93.54,49.624 94.836,49.552 95.556,49.264 C96.492,48.904 97.14,48.4 97.86,47.608 C98.94,46.456 99.444,45.592 100.524,44.44 Z" id="Sa-ran" fill="#FFFCFC"></path>
            <path d="M68.8097549,40.5474191 L68.808,40.5469691 L69.168,39.1789691 L69.384,38.0989691 C69.528,38.0269691 69.6,37.9549691 69.672,37.8109691 C70.152,36.3229691 70.344,35.5789691 70.248,35.5789691 C70.32,35.5069691 70.464,35.5069691 70.464,35.5069691 C70.68,35.1469691 70.752,34.9309691 70.896,34.4989691 L71.76,32.5549691 C71.76,32.3389691 71.76,32.0509691 71.832,31.8349691 C71.76,31.8349691 71.688,31.7629691 71.688,31.6909691 C71.904,31.4029691 72.192,31.1869691 72.336,30.8989691 C72.696,30.2509691 72.768,29.5309691 73.2,28.7389691 C73.2,28.5949691 73.344,28.3069691 73.344,28.0909691 C73.344,27.8029691 73.416,27.5869691 73.704,27.3709691 C73.776,27.0829691 73.776,26.8669691 73.92,26.7949691 C74.208,26.6509691 74.712,26.3629691 74.496,26.0029691 L74.64,25.7869691 C74.928,25.2109691 74.712,24.9949691 75.288,24.2749691 L76.872,21.8269691 C77.232,21.0349691 79.896,16.5709691 79.824,16.5709691 C79.608,16.4269691 78.024,15.5629691 77.304,16.2829691 L76.08,17.8669691 C75.576,18.5869691 73.92,21.3229691 73.92,21.3229691 L73.776,21.6829691 C73.056,22.9789691 72.192,24.5629691 71.616,26.0749691 C71.112,26.8669691 70.896,27.7309691 70.464,28.6669691 C69.672,30.2509691 69.096,31.8349691 68.52,33.2749691 L67.656,35.6509691 C67.032,37.2829691 66.744,38.0989691 66.792,38.0989691 L66.648,38.4589691 C66.576,38.8189691 65.352,42.4189691 65.136,42.7789691 C65.208,43.0669691 64.704,45.2989691 64.488,45.4429691 C64.344,45.7309691 64.272,46.0189691 64.272,46.3069691 C64.272,46.5949691 64.272,46.9549691 64.344,47.1709691 C64.2,47.5309691 63.84,47.7469691 63.984,48.1069691 C63.552,48.8269691 63.768,49.9069691 63.264,50.6989691 C63.12,51.8509691 62.904,52.7149691 62.688,53.7949691 C62.688,54.5869691 62.76,55.4509691 62.616,56.3149691 C62.616,56.3149691 62.472,56.3149691 62.472,56.5309691 C62.328,56.8909691 62.544,57.4669691 62.256,57.8989691 C62.04,58.3309691 62.256,58.5469691 62.256,58.8349691 C62.184,59.6989691 61.824,60.5629691 62.256,61.2109691 L62.328,61.2829691 C61.896,61.7149691 61.896,62.2189691 61.824,62.5789691 C62.184,63.0829691 61.824,63.8749691 62.328,64.3069691 C61.824,64.6669691 62.04,65.0269691 62.256,65.3869691 C62.328,66.0349691 62.472,66.6109691 62.76,67.2589691 C62.8861676,68.1421425 63.3439659,68.8042288 63.8912591,69.4873638 L64.488,69.6067554 C64.632,69.3632391 65.064,68.3389691 64.92,68.0509691 C64.632,67.6189691 64.488,67.0429691 64.488,66.4669691 L64.344,65.3869691 C64.344,65.3149691 64.128,65.0989691 64.2,64.9549691 C64.56,64.5949691 64.2,63.8029691 64.2,63.8029691 C64.344,63.5149691 64.272,62.2189691 64.2,62.0749691 C64.344,61.6429691 64.488,61.3549691 64.488,61.0669691 L64.416,60.5629691 C64.344,59.8429691 64.848,57.7549691 64.992,57.3229691 C64.992,57.2509691 64.992,57.2509691 64.92,57.1789691 L64.92,56.7469691 C64.776,56.6029691 64.848,56.4589691 64.632,56.3869691 C64.776,56.2429691 64.92,56.1709691 64.92,55.8829691 C64.92,55.8109691 64.92,55.6669691 64.848,55.5949691 C64.92,55.5229691 65.064,55.4509691 65.064,55.3069691 L66.504,48.6109691 C66.864,48.1789691 66.36,47.9629691 66.288,47.6029691 C67.152,47.0989691 67.08,45.9469691 67.44,45.0109691 C67.656,44.5789691 67.8,44.0029691 67.872,43.5709691 C68.16,42.9949691 68.304,42.4189691 68.304,42.1309691 L68.664,40.8349691 L68.8097549,40.5474191 Z" id="f" fill="#FFFFFF"></path>
            <path d="M79.928,41.1067538 C78.848,41.7547538 66.608,52.9147538 66.104,53.4187538 C65.888,53.9227538 65.744,54.3547538 65.6,55.0027538 C65.312,56.0107538 65.024,58.0267538 64.808,58.9627538 C64.664,59.4667538 64.592,59.9707538 64.376,59.9707538 C63.944,59.9707538 63.008,59.8267538 62.504,59.4667538 C62.432,59.0347538 62.864,56.7307538 62.936,56.1547538 C63.368,53.9947538 65.168,45.2827538 65.24,45.1387538 C65.312,44.9947538 65.384,44.4907538 65.456,44.3467538 L65.24,44.4907538 C64.592,44.7787538 63.008,46.0747538 62.576,45.9307538 C62.36,45.8587538 59.7187607,47.3421208 59.6467607,47.1981208 C59.5027607,46.9101208 62.0891792,44.5627538 62.3771792,44.3467538 C63.8171792,43.4827538 65.0621908,41.7669029 66.2141908,40.7589029 C66.5021908,40.3269029 66.824,39.7387538 66.896,39.3067538 C67.616,37.3627538 68.12,35.9227538 68.696,33.9067538 C69.344,31.9627538 70.208,29.9467538 71.072,27.9307538 C71.288,27.2827538 71.576,26.6347538 71.864,25.9867538 C71.936,25.6987538 72.08,25.2667538 72.584,25.3387538 C72.152,25.2667538 72.152,25.0507538 72.512,24.8347538 C72.872,23.9707538 73.232,23.2507538 73.736,22.4587538 C74.24,21.4507538 74.816,20.5147538 75.32,19.5787538 C75.608,19.0747538 75.824,18.6427538 76.256,18.1387538 C76.328,17.9227538 76.472,17.5627538 76.472,17.2027538 C76.616,17.1307538 76.904,17.0587538 77.12,16.9147538 C77.696,16.1947538 78.2,15.4027538 78.848,14.6107538 C78.776,14.6107538 78.56,14.6107538 78.416,14.5387538 C78.848,14.3947538 78.992,14.3227538 79.208,14.1067538 L78.92,14.1067538 L79.928,12.8107538 C80.288,12.4507538 80.576,12.0907538 81.08,11.8747538 C82.16,10.6507538 83.456,9.71475382 84.968,9.21075382 C86.192,8.77875382 87.128,9.06675382 88.064,9.57075382 C88.856,9.85875382 89.288,11.0827538 89.144,11.8027538 C89.072,12.0907538 89.144,12.2347538 89.072,12.3787538 C89.144,12.4507538 89.216,12.5947538 89.216,12.6667538 C88.928,13.4587538 88.712,14.1067538 88.496,14.8267538 C88.424,14.9707538 88.28,15.1147538 88.28,15.2587538 L88.28,15.6187538 C87.704,16.1947538 87.416,16.9147538 87.272,17.7787538 C87.128,18.3547538 86.912,19.0747538 86.264,19.4347538 C85.616,20.0827538 85.472,21.0187538 84.824,21.6667538 C83.96,22.6027538 83.456,23.6827538 82.736,24.6907538 C82.016,25.5547538 81.512,26.5627538 80.792,27.4267538 C80.072,28.5787538 79.28,29.6587538 78.56,30.5947538 C77.552,31.9627538 76.472,33.2587538 75.32,34.6987538 C74.888,35.3467538 74.24,35.8507538 73.808,36.4267538 C73.376,36.8587538 73.016,37.2907538 72.584,37.5787538 C71.504,38.8027538 70.352,39.9547538 69.416,41.1067538 C69.056,41.3947538 68.912,41.6827538 68.768,41.9707538 C68.696,42.4747538 68.624,42.8347538 68.408,43.2667538 C68.408,43.4827538 67.76,45.2107538 67.544,46.1467538 C67.112,48.4507538 67.112,48.3067538 66.608,50.0347538 C67.04,49.5307538 79.568,38.5147538 80.072,38.1547538 C80.864,37.6507538 80.504,40.7467538 79.928,41.1067538 Z M70.28,37.4347538 C71.576,35.8507538 72.872,34.4827538 74.24,32.8987538 C75.608,31.3147538 76.688,29.6587538 77.984,28.0027538 C78.848,26.8507538 79.784,25.6987538 80.576,24.4747538 C80.936,23.8267538 81.728,23.2507538 81.944,22.4587538 C81.944,22.2427538 82.16,21.8827538 82.304,21.7387538 C82.664,21.5227538 82.808,21.2347538 82.808,20.8027538 C83.24,20.8747538 83.168,20.6587538 83.24,20.2987538 C83.384,20.0827538 83.384,19.8667538 83.528,19.5787538 C83.744,19.3627538 84.104,19.0747538 84.176,18.7867538 C84.392,18.7147538 84.464,18.6427538 84.536,18.7147538 C84.464,18.5707538 84.392,18.4267538 84.464,18.3547538 C84.68,17.9947538 85.184,17.5627538 85.184,17.2027538 C86.336,15.6907538 87.56,12.5227538 86.984,11.2267538 C86.912,11.2267538 86.84,11.2267538 86.84,11.1547538 C85.256,11.5867538 83.672,13.3867538 82.088,14.6827538 L80.864,16.2667538 C80.72,16.4107538 80.432,16.6267538 80.288,16.8427538 C79.784,17.2747538 79.64,17.5627538 79.352,17.9947538 C78.776,18.7147538 78.2,19.4347538 77.768,20.2267538 C77.192,21.0187538 76.832,21.7387538 76.472,22.5307538 C76.256,22.7467538 76.04,22.8907538 75.968,23.1787538 C75.608,23.8267538 75.248,24.4747538 74.96,25.1227538 C74.6,25.4827538 74.456,25.9867538 74.312,26.4187538 C74.024,26.9227538 73.808,27.4987538 73.664,28.0027538 C73.592,28.2907538 73.232,28.4347538 73.304,28.5787538 C73.376,29.2267538 72.44,29.5867538 72.656,30.1627538 C72.656,30.1627538 72.512,30.2347538 72.512,30.3067538 C72.44,30.5947538 72.296,30.8827538 72.152,31.1707538 C71.648,31.5307538 71.792,32.3227538 71.576,32.8987538 C71.216,33.6187538 71.144,34.1947538 71,34.8427538 C70.712,35.4907538 70.496,36.0667538 70.496,36.5707538 C70.352,36.9307538 70.208,37.1467538 70.208,37.3627538 C70.136,37.4347538 70.208,37.4347538 70.28,37.4347538 Z M63.9163359,55.0223721 C63.6283359,55.1663721 58.9070502,59.3671753 58.7630502,59.5111753 C58.2590502,59.8711753 57.4670502,60.5191753 57.1070502,60.3751753 C56.6030502,60.0151753 56.6030502,58.8631753 56.6750502,58.2151753 C56.7470502,57.4951753 57.1070502,57.3511753 57.4670502,57.2071753 C58.2590502,56.5591753 58.6190502,56.4151753 58.9790502,55.9831753 C59.4110502,55.8391753 63.4123359,52.2252053 63.9163359,52.0092053 C64.0603359,51.7932053 63.8443359,55.4543721 63.9163359,55.0223721 Z" id="h" fill="#FFFFFF"></path>
            <path d="M72.3380535,70.2241211 C72.127766,70.2241211 72.0143231,70.1051444 71.9977214,69.8671875 C71.9977214,69.7897132 72.0004883,69.7177738 72.0060222,69.6513672 C72.0115561,69.5849606 72.014323,69.5130212 72.014323,69.4355469 L71.9562175,69.3691406 C72.0392258,69.1422515 72.0807292,68.9098319 72.0807292,68.671875 C72.0807292,68.4781891 72.0668947,68.1046577 72.0392253,67.5512695 C72.0115559,66.9978813 71.9977214,66.6243499 71.9977214,66.4306641 C71.9977214,65.7887338 72.0170897,64.9365288 72.0558269,63.8740234 C72.0945641,62.8115181 72.1139324,61.9565462 72.1139324,61.309082 C72.1139324,61.0323879 72.1028648,60.6920593 72.0807292,60.2880859 C72.0585937,59.8896464 72.0475261,59.5520847 72.0475261,59.2753906 C72.0475261,59.1093742 72.0848793,58.9876306 72.1595867,58.9101562 C72.2342941,58.8326819 72.360188,58.7939453 72.5372722,58.7939453 C72.6645515,58.7939453 72.7558592,58.829915 72.811198,58.9018555 C72.8831385,58.9184571 73.0491524,58.9405923 73.3092449,58.9682617 C73.5914728,59.001465 73.8377269,59.0512692 74.0480144,59.1176758 C74.2583019,59.1840824 74.3634441,59.2698562 74.3634441,59.375 C74.3634441,59.4801438 74.2583019,59.5935866 74.0480144,59.715332 C73.4282196,59.5105784 72.9689143,59.4026693 72.6700847,59.3916016 L72.5870769,59.4912109 C72.5981447,59.7014984 72.6036785,59.9449856 72.6036785,60.2216797 C72.6036785,60.5758481 72.5926109,61.0157851 72.5704753,61.5415039 C72.5483398,62.0672227 72.5372722,62.5071597 72.5372722,62.8613281 C72.5372722,63.1767594 72.6175123,63.3344727 72.7779949,63.3344727 L73.0602214,63.3178711 C73.2262379,63.3068033 73.3230794,63.3012695 73.3507488,63.3012695 C73.7879254,63.3012695 74.0092774,63.4036448 74.0148113,63.6083984 C74.0148113,63.7301438 73.9843754,63.8339026 73.9235027,63.9196777 C73.86263,64.0054529 73.779623,64.0483398 73.6744792,64.0483398 C73.4863273,64.0483398 73.356283,64.0040695 73.2843425,63.9155273 L72.7281902,63.8325195 L72.6534832,63.8325195 L72.5704753,63.9155273 L72.5704753,63.965332 C72.5926109,64.2254245 72.6036785,64.6736622 72.6036785,65.3100586 L72.5870769,66.5136719 L72.5704753,67.7255859 C72.5704753,68.1682965 72.5870767,68.6193011 72.62028,69.0786133 C72.6368817,69.3387057 72.6949866,69.5116369 72.7945964,69.5974121 C72.8942063,69.6831873 73.0795886,69.7260742 73.3507488,69.7260742 L73.6578777,69.7094727 L73.9816082,69.6928711 C74.3136411,69.6928711 74.479655,69.7675774 74.479655,69.9169922 C74.479655,70.1217458 74.233401,70.2241211 73.7408855,70.2241211 L72.3380535,70.2241211 Z M81.4052735,70.0664062 C81.3222653,70.0664062 81.2586266,70.03182 81.2143555,69.9626465 C81.1700845,69.893473 81.1341148,69.7924811 81.1064454,69.659668 C81.0843098,69.5434565 81.0594078,69.4632164 81.0317383,69.4189453 L81.0483399,69.3691406 C80.9708656,68.8710913 80.7827164,68.2208699 80.4838868,67.418457 C80.3289381,66.997882 80.2237959,66.7018238 80.1684571,66.5302734 C80.1297199,66.4860024 79.9775405,66.0626668 79.7119141,65.2602539 C78.6936799,62.1004074 78.0517592,60.3932304 77.7861329,60.1386719 C77.6975908,60.4762387 77.6533204,60.8746722 77.6533204,61.3339844 L77.6699219,62.0063477 L77.6865235,62.6704102 L77.6699219,63.0854492 L77.6533204,63.4921875 C77.6533204,63.6748056 77.664388,63.8878569 77.6865235,64.1313477 L77.7197266,64.6791992 L77.6699219,64.6791992 C77.6699219,66.560719 77.7086585,67.6038401 77.7861329,67.8085938 L77.7861329,69.3359375 C77.8304039,69.4134118 77.8525391,69.5323885 77.8525391,69.6928711 C77.8525391,69.7814132 77.8234867,69.8602698 77.7653809,69.9294434 C77.7072752,69.9986169 77.6311854,70.0332031 77.5371094,70.0332031 C77.2991525,70.0332031 77.1801758,69.7288442 77.1801758,69.1201172 C77.1801758,68.9707024 77.1912434,68.7853201 77.213379,68.5639648 C77.2355145,68.3481435 77.2465821,68.1627612 77.2465821,68.0078125 C77.2465821,67.4599582 77.2299807,66.6437229 77.1967774,65.559082 C77.1580402,64.5519155 77.1386719,63.7384471 77.1386719,63.1186523 C77.1386719,62.7368145 77.1580402,62.2332388 77.1967774,61.6079102 C77.2299807,60.9327766 77.2465821,60.4319678 77.2465821,60.1054688 L77.2465821,59.8896484 C77.2465821,59.3307264 77.3489574,58.9654956 77.553711,58.7939453 L77.6035157,58.8520508 L77.7695313,58.8105469 C77.8248701,58.8326824 77.8774412,58.8686521 77.9272462,58.918457 C77.9549156,58.9571942 77.9798177,59.0069984 78.0019532,59.0678711 L78.0268555,59.1674805 L78.0434571,59.2587891 C78.237143,60.0722697 78.6438772,61.1983978 79.2636719,62.637207 C79.8668651,64.0372791 80.2708324,65.0527312 80.475586,65.6835938 C80.5530603,65.9215507 80.644368,66.27018 80.7495118,66.7294922 C80.8601894,67.2275416 80.9750157,67.6550275 81.0939942,68.0119629 C81.2129727,68.3688983 81.3527011,68.6857083 81.5131837,68.9624023 L81.5463868,68.9125977 C81.8064792,66.4112831 81.9365235,63.3234233 81.9365235,59.6489258 L81.9199219,59.4414062 L81.9033204,59.2255859 C81.9033204,58.987629 81.9835605,58.8686523 82.144043,58.8686523 C82.2491868,58.8686523 82.3377276,58.91984 82.409668,59.0222168 C82.4816085,59.1245936 82.5175782,59.236653 82.5175782,59.3583984 L82.5175782,60.4956055 L82.4262696,60.6367188 C82.4262696,61.2565135 82.3958337,62.3079353 82.334961,63.7910156 C82.2740883,65.274096 82.2021489,66.6354105 82.1191407,67.875 C82.0361325,69.1145895 81.9586593,69.8063144 81.8867188,69.9501953 C81.8258461,69.9612631 81.7290046,69.9861652 81.5961915,70.0249023 L81.5961915,70.0332031 L81.5878907,70.0249023 C81.4882808,70.0525718 81.427409,70.0664062 81.4052735,70.0664062 Z M85.8074545,70.2075195 C85.6746413,70.185384 85.5542812,70.1369633 85.4463705,70.0622559 C85.3384598,69.9875485 85.2762045,69.8976242 85.2596029,69.7924805 L85.3426107,69.659668 C85.4311528,69.6707357 85.5307612,69.690104 85.6414388,69.7177734 C85.774252,69.7565106 85.8793942,69.7758789 85.9568685,69.7758789 C86.2114271,69.7758789 86.4341625,69.677654 86.6250814,69.4812012 C86.8160003,69.2847484 86.9584957,69.0260433 87.0525717,68.7050781 C87.2185881,68.1406222 87.3015951,67.5872423 87.3015951,67.0449219 C87.3015951,66.6243469 87.2351895,66.1982443 87.1023763,65.7666016 C86.9695632,65.3349588 86.7952485,64.9226908 86.5794271,64.5297852 L86.3802084,64.1728516 C86.1422515,63.7412088 85.9568692,63.3925795 85.824056,63.1269531 C85.6912429,62.8613268 85.5750331,62.5652686 85.4754232,62.2387695 C85.3315423,61.7905251 85.2596029,61.3395205 85.2596029,60.8857422 C85.2596029,60.6809886 85.2858884,60.4527194 85.3384603,60.2009277 C85.3910322,59.9491361 85.4671219,59.6987317 85.5667318,59.449707 C85.6718756,59.1840807 85.8157543,58.969646 85.9983724,58.8063965 C86.1809905,58.643147 86.3829742,58.5615234 86.6043295,58.5615234 C86.7426765,58.5615234 86.8851718,58.6113276 87.0318197,58.7109375 C87.1784676,58.8105474 87.2517904,58.9184565 87.2517904,59.034668 C87.2517904,59.1232101 87.1770841,59.1674805 87.0276693,59.1674805 C86.9889321,59.1674805 86.9308273,59.1508791 86.8533529,59.1176758 C86.7814124,59.0844725 86.7205407,59.0678711 86.6707357,59.0678711 C86.4991854,59.0678711 86.3470059,59.1356601 86.2141927,59.2712402 C86.0813796,59.4068203 85.9790043,59.5852854 85.9070638,59.8066406 C85.7687168,60.2216818 85.6995443,60.6035139 85.6995443,60.9521484 C85.6995443,61.1735037 85.7272133,61.3948557 85.7825521,61.6162109 L85.8406576,61.8984375 C85.8461915,61.9482424 85.8793943,62.0616853 85.940267,62.2387695 L86.0232748,62.5375977 L86.1477865,62.8447266 L86.4466146,63.3676758 L86.5794271,63.5917969 C86.7343758,63.8518893 86.8644201,64.0760082 86.9695638,64.2641602 C87.0747076,64.4523121 87.1798498,64.6598296 87.2849935,64.8867188 C87.3956712,65.1302096 87.4786781,65.3543284 87.534017,65.559082 C87.5893558,65.7638357 87.63916,66.0156235 87.683431,66.3144531 C87.7221682,66.5856133 87.7415365,66.8955061 87.7415365,67.2441406 C87.7415365,67.8141305 87.6640633,68.3232399 87.5091146,68.7714844 C87.4095048,69.0537123 87.2919115,69.2930491 87.1563314,69.489502 C87.0207513,69.6859548 86.8478201,69.8450515 86.6375326,69.9667969 C86.4161773,70.09961 86.1671564,70.1660156 85.8904623,70.1660156 L85.8074545,70.2075195 Z M87.1604818,59.1176758 C87.1604818,59.106608 87.154948,59.1010742 87.1438802,59.1010742 L87.1438802,59.1176758 L87.1604818,59.1176758 Z M90.8238932,70.2241211 C90.6136057,70.2241211 90.5001629,70.1051444 90.4835612,69.8671875 C90.4835612,69.7897132 90.4863281,69.7177738 90.491862,69.6513672 C90.4973959,69.5849606 90.5001628,69.5130212 90.5001628,69.4355469 L90.4420573,69.3691406 C90.5250655,69.1422515 90.566569,68.9098319 90.566569,68.671875 C90.566569,68.4781891 90.5527345,68.1046577 90.5250651,67.5512695 C90.4973957,66.9978813 90.4835612,66.6243499 90.4835612,66.4306641 C90.4835612,65.7887338 90.5029295,64.9365288 90.5416667,63.8740234 C90.5804039,62.8115181 90.5997722,61.9565462 90.5997722,61.309082 C90.5997722,61.0323879 90.5887046,60.6920593 90.566569,60.2880859 C90.5444335,59.8896464 90.5333659,59.5520847 90.5333659,59.2753906 C90.5333659,59.1093742 90.570719,58.9876306 90.6454265,58.9101562 C90.7201339,58.8326819 90.8460278,58.7939453 91.023112,58.7939453 C91.1503913,58.7939453 91.241699,58.829915 91.2970378,58.9018555 C91.3689782,58.9184571 91.5349922,58.9405923 91.7950847,58.9682617 C92.0773126,59.001465 92.3235667,59.0512692 92.5338542,59.1176758 C92.7441417,59.1840824 92.8492839,59.2698562 92.8492839,59.375 C92.8492839,59.4801438 92.7441417,59.5935866 92.5338542,59.715332 C91.9140594,59.5105784 91.4547541,59.4026693 91.1559245,59.3916016 L91.0729167,59.4912109 C91.0839845,59.7014984 91.0895182,59.9449856 91.0895182,60.2216797 C91.0895182,60.5758481 91.0784507,61.0157851 91.0563151,61.5415039 C91.0341796,62.0672227 91.023112,62.5071597 91.023112,62.8613281 C91.023112,63.1767594 91.1033521,63.3344727 91.2638347,63.3344727 L91.5460612,63.3178711 C91.7120777,63.3068033 91.8089192,63.3012695 91.8365886,63.3012695 C92.2737652,63.3012695 92.4951172,63.4036448 92.5006511,63.6083984 C92.5006511,63.7301438 92.4702152,63.8339026 92.4093425,63.9196777 C92.3484698,64.0054529 92.2654628,64.0483398 92.160319,64.0483398 C91.972167,64.0483398 91.8421228,64.0040695 91.7701823,63.9155273 L91.21403,63.8325195 L91.1393229,63.8325195 L91.0563151,63.9155273 L91.0563151,63.965332 C91.0784507,64.2254245 91.0895182,64.6736622 91.0895182,65.3100586 L91.0729167,66.5136719 L91.0563151,67.7255859 C91.0563151,68.1682965 91.0729165,68.6193011 91.1061198,69.0786133 C91.1227215,69.3387057 91.1808263,69.5116369 91.2804362,69.5974121 C91.3800461,69.6831873 91.5654284,69.7260742 91.8365886,69.7260742 L92.1437175,69.7094727 L92.4674479,69.6928711 C92.7994808,69.6928711 92.9654948,69.7675774 92.9654948,69.9169922 C92.9654948,70.1217458 92.7192408,70.2241211 92.2267253,70.2241211 L90.8238932,70.2241211 Z M102.281738,70.8798828 C102.054849,70.8798828 101.941406,70.517419 101.941406,69.7924805 L101.941406,68.6801758 C101.941406,67.0421468 101.908203,65.7638392 101.841797,64.8452148 C101.825195,64.6293935 101.80306,64.4191091 101.775391,64.2143555 C101.73112,63.8712548 101.708984,63.6250007 101.708984,63.4755859 C101.708984,63.193358 101.720052,62.8419617 101.742188,62.4213867 C101.764323,62.0008117 101.775391,61.6494155 101.775391,61.3671875 C101.775391,60.9798158 101.753255,60.7114265 101.708984,60.5620117 C101.487629,60.7335621 100.806972,63.1213963 99.6669922,67.7255859 C99.6503905,67.8085942 99.6393229,67.8916011 99.6337891,67.9746094 C99.6005858,68.2457696 99.5563154,68.4754222 99.5009766,68.6635742 C99.4677733,68.7797857 99.420736,68.8724769 99.3598633,68.9416504 C99.2989906,69.0108239 99.2298181,69.0454102 99.1523438,69.0454102 C98.9697256,69.0454102 98.8396814,69.0011398 98.762207,68.9125977 C98.6847327,68.8240555 98.6459961,68.6829437 98.6459961,68.4892578 C98.6459961,68.1904282 98.5007339,67.4004784 98.2102051,66.1193848 C97.9196763,64.8382911 97.6084001,63.6056374 97.2763672,62.4213867 C96.9443343,61.237136 96.7146816,60.5841477 96.5874023,60.4624023 C96.5597329,61.087731 96.5099287,62.0201761 96.4379883,63.2597656 C96.3605139,64.6377022 96.3037925,65.7984165 96.2678223,66.7419434 C96.231852,67.6854702 96.2138672,68.5777953 96.2138672,69.4189453 C96.2138672,69.6735039 96.219401,69.9003896 96.2304688,70.0996094 C96.1806638,70.2490242 96.0616871,70.3237305 95.8735352,70.3237305 C95.834798,70.3237305 95.7766931,70.2932946 95.6992188,70.2324219 C95.6217444,70.1715492 95.5830078,70.121745 95.5830078,70.0830078 C95.5830078,68.9264265 95.6715486,67.1390095 95.8486328,64.7207031 C96.025717,62.3023968 96.1142578,60.5149797 96.1142578,59.3583984 C96.1142578,59.3196613 96.0976564,59.2643233 96.0644531,59.1923828 C96.0312498,59.1259762 96.0146484,59.0734051 96.0146484,59.034668 C96.0146484,58.8631176 96.1668279,58.7773438 96.4711914,58.7773438 C96.5541996,58.7773438 96.6247556,58.7994789 96.6828613,58.84375 C96.7409671,58.8880211 96.7810871,58.9516597 96.8032227,59.034668 C96.8474937,59.2062183 96.8723958,59.3749992 96.8779297,59.5410156 C96.8889975,59.6848966 96.8945312,59.754069 96.8945312,59.7485352 C96.9498701,60.0639664 97.1103502,60.5177379 97.3759766,61.1098633 C97.6194674,61.6577176 97.7827144,62.0810532 97.8657227,62.3798828 L97.9155273,62.5541992 C97.9210612,62.5818686 97.9680985,62.7451157 98.0566406,63.0439453 C98.134115,63.3261733 98.2060544,63.5931791 98.2724609,63.8449707 C98.3388675,64.0967623 98.3886717,64.3167308 98.421875,64.5048828 L98.6459961,64.953125 C98.6736655,65.0970059 98.7373042,65.3736959 98.8369141,65.7832031 C98.9365239,66.1761087 99.0098468,66.5164374 99.0568848,66.8041992 C99.1039228,67.0919611 99.1302083,67.3631172 99.1357422,67.6176758 C99.2187504,67.4959304 99.4152003,66.8996636 99.7250977,65.8288574 C100.034995,64.7580513 100.346271,63.6208556 100.658936,62.4172363 C100.9716,61.213617 101.161132,60.4319679 101.227539,60.0722656 C101.227539,60.0777995 101.241374,59.9920256 101.269043,59.8149414 C101.285645,59.6821282 101.30778,59.5673019 101.335449,59.470459 C101.363119,59.3736161 101.396321,59.2698573 101.435059,59.1591797 C101.518067,58.9267567 101.653645,58.8105469 101.841797,58.8105469 C101.919271,58.8105469 102.009195,58.8451331 102.111572,58.9143066 C102.213949,58.9834802 102.265137,59.0512692 102.265137,59.1176758 C102.265137,63.8657464 102.339843,66.3642566 102.489258,66.6132812 L102.472656,67.5014648 L102.456055,68.3979492 C102.456055,69.1007522 102.500325,69.6458314 102.588867,70.0332031 L102.630371,70.1660156 C102.646973,70.2324222 102.655273,70.2849933 102.655273,70.3237305 C102.655273,70.4510098 102.619304,70.5755202 102.547363,70.6972656 C102.475423,70.819011 102.386882,70.8798828 102.281738,70.8798828 Z M101.708984,60.4956055 L101.708984,60.4624023 L101.692383,60.4624023 L101.66748,60.4790039 L101.708984,60.4956055 Z M106.194173,70.190918 C106.094563,70.190918 106.015707,70.1563317 105.957601,70.0871582 C105.899495,70.0179847 105.870443,69.9335942 105.870443,69.8339844 C105.859375,69.6901034 105.853841,69.5130219 105.853841,69.3027344 C105.853841,68.9430321 105.884277,68.3426149 105.94515,67.5014648 C106.000489,66.743323 106.028158,66.1484397 106.028158,65.7167969 L106.011556,64.953125 L105.994954,64.2060547 C105.994954,63.7522764 106.011556,63.074386 106.044759,62.1723633 C106.077962,61.2648067 106.094564,60.5869163 106.094564,60.1386719 C106.094564,59.7789696 106.08903,59.4497085 106.077962,59.1508789 L106.011556,59.0678711 L106.011556,58.9682617 C106.011556,58.8243808 106.037842,58.7150883 106.090413,58.6403809 C106.142985,58.5656735 106.235676,58.5283203 106.36849,58.5283203 C106.473633,58.5283203 106.652098,58.5615231 106.90389,58.6279297 C107.155682,58.6943363 107.383951,58.770426 107.588704,58.8562012 C107.793458,58.9419763 107.895833,59.0180661 107.895833,59.0844727 L107.879232,59.1342773 C108.083985,59.4552425 108.223714,59.7817366 108.298421,60.1137695 C108.373129,60.4458024 108.410482,60.8691381 108.410482,61.3837891 C108.410482,62.230473 108.319174,62.9028295 108.136556,63.4008789 L108.153158,63.4008789 C108.125488,63.4728194 108.039714,63.619465 107.895833,63.8408203 C107.757486,64.0400401 107.677246,64.1617836 107.655111,64.2060547 C107.859864,64.3610034 108.030029,64.5934229 108.165609,64.9033203 C108.301189,65.2132177 108.388346,65.5092759 108.427083,65.7915039 C108.454753,66.0958674 108.476888,66.3946925 108.49349,66.6879883 L108.510091,67.1279297 L108.510091,67.3686523 C108.510091,68.4532932 108.172529,69.255694 107.497396,69.7758789 C107.137693,70.052573 106.70329,70.190918 106.194173,70.190918 Z M106.708822,63.8657227 C107.455896,63.8657227 107.829427,63.1103591 107.829427,61.5996094 C107.829427,61.3782541 107.821126,61.134767 107.804525,60.8691406 L107.779622,60.5454102 L107.746419,60.512207 C107.71875,60.1746402 107.657878,59.878582 107.563802,59.6240234 C107.502929,59.4635409 107.413005,59.3362635 107.294027,59.2421875 C107.175048,59.1481115 107.040854,59.1010742 106.891439,59.1010742 C106.642414,59.1010742 106.517904,59.8453702 106.517904,61.3339844 C106.517904,61.6162123 106.520671,61.8098953 106.526204,61.9150391 C106.531738,62.0201828 106.534505,62.1308588 106.534505,62.2470703 C106.534505,62.4628917 106.531738,62.6565747 106.526204,62.828125 C106.520671,63.0052092 106.517904,63.2071929 106.517904,63.434082 L106.517904,63.6416016 L106.551107,63.7495117 L106.58431,63.8657227 L106.708822,63.8657227 Z M106.451497,69.5268555 C106.722658,69.5268555 106.975829,69.4355478 107.211019,69.2529297 C107.446209,69.0703116 107.632975,68.8351251 107.771322,68.5473633 C107.909669,68.2596014 107.978841,67.9718439 107.978841,67.684082 L107.987142,67.6259766 L107.987142,67.3022461 C107.987142,67.0421536 107.980225,66.8138844 107.96639,66.6174316 C107.952555,66.4209788 107.917969,66.1927096 107.86263,65.9326172 C107.801757,65.6337876 107.721517,65.3847666 107.621908,65.1855469 C107.522298,64.9863271 107.383953,64.8147794 107.206868,64.6708984 C107.018716,64.5270175 106.805665,64.4550781 106.567708,64.4550781 C106.512369,65.2630249 106.484701,66.0349898 106.484701,66.7709961 L106.484701,67.1611328 C106.484701,67.4876318 106.501302,67.7477204 106.534505,67.9414062 C106.468099,68.0631517 106.434896,68.3343078 106.434896,68.7548828 C106.434896,68.931967 106.437663,69.0786127 106.443197,69.1948242 L106.451497,69.5268555 Z M111.741862,70.2241211 C111.581379,70.2241211 111.487305,70.0940768 111.459635,69.8339844 C111.481771,69.7399084 111.492839,69.5517592 111.492839,69.2695312 C111.492839,68.2236276 111.50944,66.6769308 111.542643,64.6293945 C111.575846,62.5873921 111.592448,61.1126347 111.592448,60.2050781 C111.592448,60.1608071 111.606282,59.9588234 111.633952,59.5991211 L111.675456,59.0844727 C111.675456,59.0069983 111.716959,58.9682617 111.799967,58.9682617 C111.855306,58.9682617 111.935546,58.98763 112.04069,59.0263672 C112.068359,59.037435 112.082194,59.0402019 112.082194,59.034668 C112.082194,59.2836927 112.079427,59.5078115 112.073893,59.7070312 C112.068359,59.906251 112.065592,60.1303698 112.065592,60.3793945 C112.065592,61.0655959 112.068359,61.6826144 112.073893,62.2304688 C112.079427,62.7783231 112.082194,63.3953416 112.082194,64.081543 L112.057292,64.8120117 C112.04069,65.1495785 112.032389,65.3819981 112.032389,65.5092773 L112.065592,66.9536133 L112.015788,67.0947266 L112.032389,67.078125 C112.032389,67.1057944 112.029622,67.1279296 112.024089,67.1445312 C112.018555,67.1611329 112.015788,67.1832681 112.015788,67.2109375 C112.015788,67.3050135 112.032389,67.3852536 112.065592,67.4516602 L112.015788,69.0786133 L112.015788,69.1865234 C112.015788,69.347006 112.021322,69.4604489 112.032389,69.5268555 C112.037923,69.5821943 112.065592,69.6098633 112.115397,69.6098633 C112.281414,69.6098633 112.574705,69.618164 112.99528,69.6347656 L113.717448,69.659668 L113.767253,69.659668 C113.828125,69.659668 113.88623,69.6914873 113.941569,69.755127 C113.996908,69.8187666 114.024577,69.8837887 114.024577,69.9501953 C114.024577,70.0774746 113.933269,70.149414 113.750651,70.1660156 C113.363279,70.1549479 112.892906,70.1494141 112.339518,70.1494141 L112.372721,70.1660156 C112.306315,70.1660156 112.201173,70.1743163 112.057292,70.190918 C111.930012,70.2130535 111.82487,70.2241211 111.741862,70.2241211 Z M116.691894,70.2241211 C116.481607,70.2241211 116.368164,70.1051444 116.351562,69.8671875 C116.351562,69.7897132 116.354329,69.7177738 116.359863,69.6513672 C116.365397,69.5849606 116.368164,69.5130212 116.368164,69.4355469 L116.310059,69.3691406 C116.393067,69.1422515 116.43457,68.9098319 116.43457,68.671875 C116.43457,68.4781891 116.420736,68.1046577 116.393066,67.5512695 C116.365397,66.9978813 116.351562,66.6243499 116.351562,66.4306641 C116.351562,65.7887338 116.370931,64.9365288 116.409668,63.8740234 C116.448405,62.8115181 116.467773,61.9565462 116.467773,61.309082 C116.467773,61.0323879 116.456706,60.6920593 116.43457,60.2880859 C116.412435,59.8896464 116.401367,59.5520847 116.401367,59.2753906 C116.401367,59.1093742 116.43872,58.9876306 116.513428,58.9101562 C116.588135,58.8326819 116.714029,58.7939453 116.891113,58.7939453 C117.018393,58.7939453 117.1097,58.829915 117.165039,58.9018555 C117.236979,58.9184571 117.402993,58.9405923 117.663086,58.9682617 C117.945314,59.001465 118.191568,59.0512692 118.401855,59.1176758 C118.612143,59.1840824 118.717285,59.2698562 118.717285,59.375 C118.717285,59.4801438 118.612143,59.5935866 118.401855,59.715332 C117.782061,59.5105784 117.322755,59.4026693 117.023926,59.3916016 L116.940918,59.4912109 C116.951986,59.7014984 116.957519,59.9449856 116.957519,60.2216797 C116.957519,60.5758481 116.946452,61.0157851 116.924316,61.5415039 C116.902181,62.0672227 116.891113,62.5071597 116.891113,62.8613281 C116.891113,63.1767594 116.971353,63.3344727 117.131836,63.3344727 L117.414062,63.3178711 C117.580079,63.3068033 117.67692,63.3012695 117.70459,63.3012695 C118.141766,63.3012695 118.363118,63.4036448 118.368652,63.6083984 C118.368652,63.7301438 118.338216,63.8339026 118.277344,63.9196777 C118.216471,64.0054529 118.133464,64.0483398 118.02832,64.0483398 C117.840168,64.0483398 117.710124,64.0040695 117.638184,63.9155273 L117.082031,63.8325195 L117.007324,63.8325195 L116.924316,63.9155273 L116.924316,63.965332 C116.946452,64.2254245 116.957519,64.6736622 116.957519,65.3100586 L116.940918,66.5136719 L116.924316,67.7255859 C116.924316,68.1682965 116.940918,68.6193011 116.974121,69.0786133 C116.990723,69.3387057 117.048828,69.5116369 117.148437,69.5974121 C117.248047,69.6831873 117.43343,69.7260742 117.70459,69.7260742 L118.011719,69.7094727 L118.335449,69.6928711 C118.667482,69.6928711 118.833496,69.7675774 118.833496,69.9169922 C118.833496,70.1217458 118.587242,70.2241211 118.094727,70.2241211 L116.691894,70.2241211 Z" id="ensemble" fill="#FFFFFF"></path>
        </g>
    </g>
</svg>