<?xml version="1.0" encoding="UTF-8"?>
<svg width="140px" height="70px" viewBox="0 0 140 70" version="1.1" xmlns="http://www.w3.org/2000/svg" xmlns:xlink="http://www.w3.org/1999/xlink">
    <!-- Generator: Sketch 46.2 (44496) - http://www.bohemiancoding.com/sketch -->
    <title>logo-safran-white-path</title>
    <desc>Created with Sketch.</desc>
    <defs>
        <filter x="-5.3%" y="-5.2%" width="114.4%" height="114.4%" filterUnits="objectBoundingBox" id="filter-1">
            <feOffset dx="0" dy="2" in="SourceAlpha" result="shadowOffsetOuter1"></feOffset>
            <feGaussianBlur stdDeviation="2" in="shadowOffsetOuter1" result="shadowBlurOuter1"></feGaussianBlur>
            <feColorMatrix values="0 0 0 0 0   0 0 0 0 0   0 0 0 0 0  0 0 0 0.5 0" type="matrix" in="shadowBlurOuter1" result="shadowMatrixOuter1"></feColorMatrix>
            <feMerge>
                <feMergeNode in="shadowMatrixOuter1"></feMergeNode>
                <feMergeNode in="SourceGraphic"></feMergeNode>
            </feMerge>
        </filter>
    </defs>
    <g id="Page-1" stroke="none" stroke-width="1" fill="none" fill-rule="evenodd">
        <g id="logo-safran-white-path" filter="url(#filter-1)" transform="translate(0.000000, -7.000000)">
            <path d="M39.6120001,21.976 C41.1240001,25.432 40.1160001,29.824 37.0920001,32.344 C35.5800001,33.496 34.3560001,33.928 33.2760001,32.128 C33.0600001,31.552 33.9960001,31.264 34.9320001,30.328 C36.3000001,29.032 36.9480001,28.24 37.2360001,26.152 C37.3800001,25 37.3800001,23.92 36.8040001,22.768 C36.3000001,21.76 35.0040001,21.04 34.2120001,20.968 L32.9160001,20.824 C32.4840001,21.112 31.5480001,20.968 31.5480001,20.968 C30.9000001,21.112 27.3000001,21.76 27.0120001,22.264 C26.7240001,22.48 26.5800001,22.624 26.2920001,22.768 C26.0760001,22.912 25.5720001,23.056 25.2840001,23.056 C24.9240001,23.056 24.7080001,23.272 24.5640001,23.776 L22.8360001,25.072 C21.7560001,26.008 18.4440001,27.52 16.5720001,30.76 C14.7720001,34.072 16.4280001,37.096 18.8040001,38.968 C20.0280001,39.832 21.3960001,40.552 22.6200001,41.272 C23.1240001,41.632 23.6280001,41.848 24.1320001,42.136 C26.7960001,43.504 29.2440001,45.088 31.4760001,47.032 C33.2040001,48.544 34.4280001,50.344 35.2920001,52.432 C35.9400001,54.232 35.5800001,55.744 34.6440001,57.112 C32.4840001,60.136 27.0120001,62.512 22.4040001,63.232 C19.3080001,63.736 16.2120001,63.664 13.1160001,63.16 C7.86000005,62.224 4.47600005,58.552 4.26000005,53.584 C4.18800005,51.856 8.79600005,47.248 9.15600005,47.104 C10.8840001,46.24 13.0440001,48.4 11.8200001,48.832 C9.44400005,49.552 7.64400005,50.992 7.42800005,53.8 C7.28400005,55.96 8.07600005,59.2 10.0920001,60.424 C11.5320001,61.288 12.9720001,61.72 14.3400001,61.792 C15.9960001,61.864 17.6520001,61.792 19.3080001,61.504 C23.1960001,60.928 26.9400001,59.056 29.4600001,57.4 C30.4680001,56.752 31.4040001,55.744 32.0520001,54.736 C32.8440001,53.512 33.1320001,52.144 32.4120001,50.632 C31.8360001,49.264 30.8280001,48.256 29.7480001,47.248 C27.8760001,45.52 25.6440001,44.152 23.3400001,43.072 C21.7560001,42.28 20.3160001,41.272 18.8760001,40.336 C17.5800001,39.544 14.9160001,37.6 13.9080001,35.224 C12.7560001,32.632 12.9720001,30.184 14.4120001,28.024 C15.1320001,26.8 16.1400001,25.792 17.2920001,24.928 C18.8040001,23.776 20.1720001,22.768 21.8280001,21.976 C26.0040001,20.032 28.1640001,19.168 31.1880001,18.88 C33.4200001,18.664 36.5160001,18.88 38.2440001,20.176 C38.8200001,20.608 39.3240001,21.328 39.6120001,21.976 Z M67.692,42.424 C66.972,43.504 65.82,44.44 64.884,45.088 C64.524,45.376 64.02,45.592 63.804,45.736 C63.588,45.952 63.3,46.312 62.94,46.456 C62.868,46.528 62.364,47.104 62.148,47.176 L61.068,48.112 L59.34,49.408 C58.764,50.056 58.116,50.2 57.396,50.704 C56.964,50.92 56.748,50.848 56.388,51.064 C56.244,51.136 55.884,51.28 55.668,51.28 C55.596,51.28 55.236,51.424 55.02,51.424 C54.732,51.424 54.084,51.568 53.796,51.496 C53.652,51.424 53.22,51.424 53.076,51.28 C52.86,51.208 52.716,50.92 52.5,50.848 C52.068,50.272 51.564,49.984 51.276,49.336 C50.844,48.904 50.916,48.76 50.7,48.4 C50.556,48.328 50.556,48.184 50.484,48.04 C49.98,48.328 49.98,49.048 49.476,49.048 C49.332,49.192 49.26,49.408 49.116,49.48 C48.252,50.128 47.1,51.064 45.948,51.568 C44.796,52.144 43.572,52.144 42.492,51.712 C42.348,51.712 42.132,51.712 41.916,51.64 C41.772,51.496 41.196,51.136 40.764,50.92 C40.116,50.056 39.9,49.12 40.188,48.04 C40.404,47.536 40.548,47.176 40.692,46.744 C40.764,46.672 40.764,46.672 40.764,46.6 C40.836,46.168 41.052,45.808 41.196,45.304 L41.7,44.44 C41.988,44.08 42.132,43.72 42.276,43.576 C43.068,42.352 44.004,41.488 44.868,40.408 C45.732,39.472 46.956,38.608 48.324,38.464 C49.836,38.752 51.564,39.04 51.852,40.696 C52.068,41.704 51.492,42.352 51.132,43.072 C51.708,43 52.212,42.424 53.076,42.496 C53.508,42.64 53.796,43 53.94,43.504 C53.94,43.504 54.012,44.296 53.796,44.872 C53.724,44.944 53.724,45.088 53.652,45.232 C53.436,46.24 53.436,47.32 53.868,48.328 C53.94,48.616 54.156,48.904 54.516,49.12 C54.66,49.192 54.804,49.192 55.02,49.12 C55.236,49.048 55.524,49.048 55.812,48.904 C56.964,48.4 58.116,47.536 59.124,46.816 C60.06,46.24 61.14,45.592 62.148,44.872 C63.876,43.792 63.732,43.936 65.388,42.856 C65.892,42.424 66.468,42.064 67.188,41.632 L67.404,41.776 L67.692,42.424 Z M50.124,44.44 C50.196,44.44 50.484,44.08 50.484,44.08 L50.412,44.08 C48.828,43.936 49.404,40.768 49.476,40.696 C47.316,41.056 44.796,44.44 44.004,45.808 C43.356,46.96 42.708,48.184 42.348,49.624 C43.14,49.624 44.436,49.552 45.156,49.264 C46.092,48.904 46.74,48.4 47.46,47.608 C48.54,46.456 49.044,45.592 50.124,44.44 Z M78.996,53.296 C78.564,53.08 78.492,52.792 77.916,52.504 C77.628,51.784 77.268,51.064 77.484,50.128 L78.06,47.176 C78.204,46.384 78.492,45.592 78.492,44.8 C78.636,43.792 78.996,42.784 79.14,41.848 C79.284,40.84 79.5,39.904 79.644,38.896 C79.716,38.752 79.716,38.464 79.788,38.392 C79.932,38.176 80.22,38.032 80.436,38.032 C81.156,37.744 81.732,38.104 82.02,39.184 C82.236,39.76 82.308,40.408 82.236,41.056 C82.236,41.272 82.092,41.488 82.092,41.848 C82.308,41.56 82.596,41.344 82.668,41.128 C83.028,40.48 83.46,40.12 83.964,39.616 C84.612,38.68 85.404,38.104 86.196,37.6 C87.132,36.88 88.14,36.88 89.004,37.384 C89.364,37.672 89.724,37.96 90.012,38.248 C90.084,38.32 90.156,38.464 90.3,38.464 C90.588,38.68 90.732,38.968 90.876,39.328 L90.804,39.688 C90.804,39.688 90.372,39.904 89.436,39.472 C89.004,39.472 88.572,39.4 88.14,39.76 C87.852,40.12 87.42,40.264 86.988,40.552 C86.772,40.624 86.628,40.912 86.484,41.128 C86.052,41.488 85.62,41.848 85.26,42.208 L83.892,44.008 C83.388,44.728 82.812,45.448 82.308,46.312 C81.876,47.32 81.3,48.112 80.868,48.976 C80.58,49.696 80.508,50.344 80.292,50.992 C80.148,51.496 80.148,52 80.004,52.504 C79.86,53.368 79.572,53.512 78.996,53.296 Z M117.923994,42.663141 C118.03417,42.794211 118.137817,42.9317393 118.236,43.072 C118.308,43.144 118.308,43.144 118.308,43.216 C118.164,43.792 118.092,44.296 118.02,44.872 C117.948,45.376 117.948,45.736 117.804,46.24 C117.66,46.744 117.444,47.176 117.3,47.68 C117.3,47.752 117.3,47.824 117.228,47.968 C117.3,47.896 117.3,47.968 117.3,47.896 C118.02,46.816 118.812,45.808 119.676,44.944 C120.108,44.44 120.612,43.936 121.188,43.504 C121.548,43.288 121.62,43.288 122.34,43.216 C122.916,43.216 123.06,43.288 123.276,43.36 C123.492,43.36 123.636,43.504 124.788,44.08 C124.86,44.44 124.788,44.8 125.076,44.944 C125.148,44.944 125.076,45.16 125.076,45.376 C125.292,46.024 125.436,46.672 125.508,47.32 C125.508,47.896 125.436,48.472 125.364,49.048 C125.364,49.192 125.436,49.408 125.364,49.624 C125.436,50.128 125.436,50.704 125.436,51.208 L125.652,51.928 C125.652,52.072 125.868,52.288 125.94,52.36 L126.156,52.36 C126.228,52.288 126.444,52.216 127.668,51.568 C128.1,51.424 128.532,51.208 128.892,50.92 L135.588,44.512 C136.02,44.512 136.308,44.8 135.948,45.232 L135.3,46.24 C135.156,46.6 135.156,46.888 135.012,47.176 C134.868,47.464 134.58,47.824 134.292,48.04 L133.068,49.48 C132.996,49.624 132.996,49.84 132.636,50.056 C132.636,50.056 132.636,50.2 132.708,50.272 C132.636,50.344 132.42,50.344 132.42,50.416 C132.132,50.992 131.556,51.424 131.052,51.928 C130.62,52.432 129.972,52.936 129.324,53.368 C128.316,54.088 127.092,54.088 126.012,54.304 L125.94,54.304 C125.436,54.088 125.22,54.088 124.86,53.656 C124.212,53.152 123.636,52.504 123.348,51.568 C122.988,50.344 122.7,48.976 122.844,47.464 C122.844,47.104 122.916,46.6 122.916,46.168 C122.772,46.024 122.628,45.952 122.556,45.736 C122.34,46.528 122.052,46.744 121.548,46.816 C121.404,47.392 121.044,47.752 120.54,47.968 C120.612,48.544 120.108,48.616 119.892,48.976 C119.82,49.192 119.388,49.552 119.532,49.552 L119.172,50.056 C119.1,50.056 117.732,52.72 117.372,53.512 C117.084,53.872 116.796,54.088 116.436,54.088 L116.22,54.592 C116.076,54.664 116.076,54.736 116.004,54.808 C115.716,55.384 115.428,55.456 114.852,55.312 C114.42,55.168 113.34,54.088 113.484,53.512 C113.7,52.288 113.844,51.136 114.132,49.84 C114.492,48.616 114.924,47.32 115.212,46.024 C115.300047,45.6718116 115.364167,45.3315867 115.418991,44.993572 C115.373551,45.0256895 115.328531,45.0571707 115.284,45.088 C114.924,45.376 114.42,45.592 114.204,45.736 C113.988,45.952 113.7,46.312 113.34,46.456 C113.268,46.528 112.764,47.104 112.548,47.176 L111.468,48.112 L109.74,49.408 C109.164,50.056 108.516,50.2 107.796,50.704 C107.364,50.92 107.148,50.848 106.788,51.064 C106.644,51.136 106.284,51.28 106.068,51.28 C105.996,51.28 105.636,51.424 105.42,51.424 C105.132,51.424 104.484,51.568 104.196,51.496 C104.052,51.424 103.62,51.424 103.476,51.28 C103.26,51.208 103.116,50.92 102.9,50.848 C102.468,50.272 101.964,49.984 101.676,49.336 C101.244,48.904 101.316,48.76 101.1,48.4 C100.956,48.328 100.956,48.184 100.884,48.04 C100.38,48.328 100.38,49.048 99.876,49.048 C99.732,49.192 99.66,49.408 99.516,49.48 C98.652,50.128 97.5,51.064 96.348,51.568 C95.196,52.144 93.972,52.144 92.892,51.712 C92.748,51.712 92.532,51.712 92.316,51.64 C92.172,51.496 91.596,51.136 91.164,50.92 C90.516,50.056 90.3,49.12 90.588,48.04 C90.804,47.536 90.948,47.176 91.092,46.744 C91.164,46.672 91.164,46.672 91.164,46.6 C91.236,46.168 91.452,45.808 91.596,45.304 L92.1,44.44 C92.388,44.08 92.532,43.72 92.676,43.576 C93.468,42.352 94.404,41.488 95.268,40.408 C96.132,39.472 97.356,38.608 98.724,38.464 C100.236,38.752 101.964,39.04 102.252,40.696 C102.468,41.704 101.892,42.352 101.532,43.072 C102.108,43 102.612,42.424 103.476,42.496 C103.908,42.64 104.196,43 104.34,43.504 C104.34,43.504 104.412,44.296 104.196,44.872 C104.124,44.944 104.124,45.088 104.052,45.232 C103.836,46.24 103.836,47.32 104.268,48.328 C104.34,48.616 104.556,48.904 104.916,49.12 C105.06,49.192 105.204,49.192 105.42,49.12 C105.636,49.048 105.924,49.048 106.212,48.904 C107.364,48.4 108.516,47.536 109.524,46.816 C110.46,46.24 111.54,45.592 112.548,44.872 C114.150788,43.8702575 114.14304,43.921558 115.454971,43.0724239 C115.39452,42.840878 115.44726,42.524439 115.5,42.208 C115.572,41.704 115.716,41.56 116.148,41.632 C116.501492,41.6591917 116.813907,41.7685378 117.093002,41.93289 C117.250355,41.8354179 117.415022,41.7357868 117.588,41.632 L117.804,41.776 L118.092,42.424 C118.03831,42.5045343 117.982219,42.5842678 117.923994,42.663141 Z M100.524,44.44 C100.596,44.44 100.884,44.08 100.884,44.08 L100.812,44.08 C99.228,43.936 99.804,40.768 99.876,40.696 C97.716,41.056 95.196,44.44 94.404,45.808 C93.756,46.96 93.108,48.184 92.748,49.624 C93.54,49.624 94.836,49.552 95.556,49.264 C96.492,48.904 97.14,48.4 97.86,47.608 C98.94,46.456 99.444,45.592 100.524,44.44 Z" id="Sa-ran" fill="#f2c349e6"></path>
            <path d="M68.8097549,40.5474191 L68.808,40.5469691 L69.168,39.1789691 L69.384,38.0989691 C69.528,38.0269691 69.6,37.9549691 69.672,37.8109691 C70.152,36.3229691 70.344,35.5789691 70.248,35.5789691 C70.32,35.5069691 70.464,35.5069691 70.464,35.5069691 C70.68,35.1469691 70.752,34.9309691 70.896,34.4989691 L71.76,32.5549691 C71.76,32.3389691 71.76,32.0509691 71.832,31.8349691 C71.76,31.8349691 71.688,31.7629691 71.688,31.6909691 C71.904,31.4029691 72.192,31.1869691 72.336,30.8989691 C72.696,30.2509691 72.768,29.5309691 73.2,28.7389691 C73.2,28.5949691 73.344,28.3069691 73.344,28.0909691 C73.344,27.8029691 73.416,27.5869691 73.704,27.3709691 C73.776,27.0829691 73.776,26.8669691 73.92,26.7949691 C74.208,26.6509691 74.712,26.3629691 74.496,26.0029691 L74.64,25.7869691 C74.928,25.2109691 74.712,24.9949691 75.288,24.2749691 L76.872,21.8269691 C77.232,21.0349691 79.896,16.5709691 79.824,16.5709691 C79.608,16.4269691 78.024,15.5629691 77.304,16.2829691 L76.08,17.8669691 C75.576,18.5869691 73.92,21.3229691 73.92,21.3229691 L73.776,21.6829691 C73.056,22.9789691 72.192,24.5629691 71.616,26.0749691 C71.112,26.8669691 70.896,27.7309691 70.464,28.6669691 C69.672,30.2509691 69.096,31.8349691 68.52,33.2749691 L67.656,35.6509691 C67.032,37.2829691 66.744,38.0989691 66.792,38.0989691 L66.648,38.4589691 C66.576,38.8189691 65.352,42.4189691 65.136,42.7789691 C65.208,43.0669691 64.704,45.2989691 64.488,45.4429691 C64.344,45.7309691 64.272,46.0189691 64.272,46.3069691 C64.272,46.5949691 64.272,46.9549691 64.344,47.1709691 C64.2,47.5309691 63.84,47.7469691 63.984,48.1069691 C63.552,48.8269691 63.768,49.9069691 63.264,50.6989691 C63.12,51.8509691 62.904,52.7149691 62.688,53.7949691 C62.688,54.5869691 62.76,55.4509691 62.616,56.3149691 C62.616,56.3149691 62.472,56.3149691 62.472,56.5309691 C62.328,56.8909691 62.544,57.4669691 62.256,57.8989691 C62.04,58.3309691 62.256,58.5469691 62.256,58.8349691 C62.184,59.6989691 61.824,60.5629691 62.256,61.2109691 L62.328,61.2829691 C61.896,61.7149691 61.896,62.2189691 61.824,62.5789691 C62.184,63.0829691 61.824,63.8749691 62.328,64.3069691 C61.824,64.6669691 62.04,65.0269691 62.256,65.3869691 C62.328,66.0349691 62.472,66.6109691 62.76,67.2589691 C62.8861676,68.1421425 63.3439659,68.8042288 63.8912591,69.4873638 L64.488,69.6067554 C64.632,69.3632391 65.064,68.3389691 64.92,68.0509691 C64.632,67.6189691 64.488,67.0429691 64.488,66.4669691 L64.344,65.3869691 C64.344,65.3149691 64.128,65.0989691 64.2,64.9549691 C64.56,64.5949691 64.2,63.8029691 64.2,63.8029691 C64.344,63.5149691 64.272,62.2189691 64.2,62.0749691 C64.344,61.6429691 64.488,61.3549691 64.488,61.0669691 L64.416,60.5629691 C64.344,59.8429691 64.848,57.7549691 64.992,57.3229691 C64.992,57.2509691 64.992,57.2509691 64.92,57.1789691 L64.92,56.7469691 C64.776,56.6029691 64.848,56.4589691 64.632,56.3869691 C64.776,56.2429691 64.92,56.1709691 64.92,55.8829691 C64.92,55.8109691 64.92,55.6669691 64.848,55.5949691 C64.92,55.5229691 65.064,55.4509691 65.064,55.3069691 L66.504,48.6109691 C66.864,48.1789691 66.36,47.9629691 66.288,47.6029691 C67.152,47.0989691 67.08,45.9469691 67.44,45.0109691 C67.656,44.5789691 67.8,44.0029691 67.872,43.5709691 C68.16,42.9949691 68.304,42.4189691 68.304,42.1309691 L68.664,40.8349691 L68.8097549,40.5474191 Z" id="f" fill="#f2c349e6"></path>
            <path d="M79.928,41.1067538 C78.848,41.7547538 66.608,52.9147538 66.104,53.4187538 C65.888,53.9227538 65.744,54.3547538 65.6,55.0027538 C65.312,56.0107538 65.024,58.0267538 64.808,58.9627538 C64.664,59.4667538 64.592,59.9707538 64.376,59.9707538 C63.944,59.9707538 63.008,59.8267538 62.504,59.4667538 C62.432,59.0347538 62.864,56.7307538 62.936,56.1547538 C63.368,53.9947538 65.168,45.2827538 65.24,45.1387538 C65.312,44.9947538 65.384,44.4907538 65.456,44.3467538 L65.24,44.4907538 C64.592,44.7787538 63.008,46.0747538 62.576,45.9307538 C62.36,45.8587538 59.7187607,47.3421208 59.6467607,47.1981208 C59.5027607,46.9101208 62.0891792,44.5627538 62.3771792,44.3467538 C63.8171792,43.4827538 65.0621908,41.7669029 66.2141908,40.7589029 C66.5021908,40.3269029 66.824,39.7387538 66.896,39.3067538 C67.616,37.3627538 68.12,35.9227538 68.696,33.9067538 C69.344,31.9627538 70.208,29.9467538 71.072,27.9307538 C71.288,27.2827538 71.576,26.6347538 71.864,25.9867538 C71.936,25.6987538 72.08,25.2667538 72.584,25.3387538 C72.152,25.2667538 72.152,25.0507538 72.512,24.8347538 C72.872,23.9707538 73.232,23.2507538 73.736,22.4587538 C74.24,21.4507538 74.816,20.5147538 75.32,19.5787538 C75.608,19.0747538 75.824,18.6427538 76.256,18.1387538 C76.328,17.9227538 76.472,17.5627538 76.472,17.2027538 C76.616,17.1307538 76.904,17.0587538 77.12,16.9147538 C77.696,16.1947538 78.2,15.4027538 78.848,14.6107538 C78.776,14.6107538 78.56,14.6107538 78.416,14.5387538 C78.848,14.3947538 78.992,14.3227538 79.208,14.1067538 L78.92,14.1067538 L79.928,12.8107538 C80.288,12.4507538 80.576,12.0907538 81.08,11.8747538 C82.16,10.6507538 83.456,9.71475382 84.968,9.21075382 C86.192,8.77875382 87.128,9.06675382 88.064,9.57075382 C88.856,9.85875382 89.288,11.0827538 89.144,11.8027538 C89.072,12.0907538 89.144,12.2347538 89.072,12.3787538 C89.144,12.4507538 89.216,12.5947538 89.216,12.6667538 C88.928,13.4587538 88.712,14.1067538 88.496,14.8267538 C88.424,14.9707538 88.28,15.1147538 88.28,15.2587538 L88.28,15.6187538 C87.704,16.1947538 87.416,16.9147538 87.272,17.7787538 C87.128,18.3547538 86.912,19.0747538 86.264,19.4347538 C85.616,20.0827538 85.472,21.0187538 84.824,21.6667538 C83.96,22.6027538 83.456,23.6827538 82.736,24.6907538 C82.016,25.5547538 81.512,26.5627538 80.792,27.4267538 C80.072,28.5787538 79.28,29.6587538 78.56,30.5947538 C77.552,31.9627538 76.472,33.2587538 75.32,34.6987538 C74.888,35.3467538 74.24,35.8507538 73.808,36.4267538 C73.376,36.8587538 73.016,37.2907538 72.584,37.5787538 C71.504,38.8027538 70.352,39.9547538 69.416,41.1067538 C69.056,41.3947538 68.912,41.6827538 68.768,41.9707538 C68.696,42.4747538 68.624,42.8347538 68.408,43.2667538 C68.408,43.4827538 67.76,45.2107538 67.544,46.1467538 C67.112,48.4507538 67.112,48.3067538 66.608,50.0347538 C67.04,49.5307538 79.568,38.5147538 80.072,38.1547538 C80.864,37.6507538 80.504,40.7467538 79.928,41.1067538 Z M70.28,37.4347538 C71.576,35.8507538 72.872,34.4827538 74.24,32.8987538 C75.608,31.3147538 76.688,29.6587538 77.984,28.0027538 C78.848,26.8507538 79.784,25.6987538 80.576,24.4747538 C80.936,23.8267538 81.728,23.2507538 81.944,22.4587538 C81.944,22.2427538 82.16,21.8827538 82.304,21.7387538 C82.664,21.5227538 82.808,21.2347538 82.808,20.8027538 C83.24,20.8747538 83.168,20.6587538 83.24,20.2987538 C83.384,20.0827538 83.384,19.8667538 83.528,19.5787538 C83.744,19.3627538 84.104,19.0747538 84.176,18.7867538 C84.392,18.7147538 84.464,18.6427538 84.536,18.7147538 C84.464,18.5707538 84.392,18.4267538 84.464,18.3547538 C84.68,17.9947538 85.184,17.5627538 85.184,17.2027538 C86.336,15.6907538 87.56,12.5227538 86.984,11.2267538 C86.912,11.2267538 86.84,11.2267538 86.84,11.1547538 C85.256,11.5867538 83.672,13.3867538 82.088,14.6827538 L80.864,16.2667538 C80.72,16.4107538 80.432,16.6267538 80.288,16.8427538 C79.784,17.2747538 79.64,17.5627538 79.352,17.9947538 C78.776,18.7147538 78.2,19.4347538 77.768,20.2267538 C77.192,21.0187538 76.832,21.7387538 76.472,22.5307538 C76.256,22.7467538 76.04,22.8907538 75.968,23.1787538 C75.608,23.8267538 75.248,24.4747538 74.96,25.1227538 C74.6,25.4827538 74.456,25.9867538 74.312,26.4187538 C74.024,26.9227538 73.808,27.4987538 73.664,28.0027538 C73.592,28.2907538 73.232,28.4347538 73.304,28.5787538 C73.376,29.2267538 72.44,29.5867538 72.656,30.1627538 C72.656,30.1627538 72.512,30.2347538 72.512,30.3067538 C72.44,30.5947538 72.296,30.8827538 72.152,31.1707538 C71.648,31.5307538 71.792,32.3227538 71.576,32.8987538 C71.216,33.6187538 71.144,34.1947538 71,34.8427538 C70.712,35.4907538 70.496,36.0667538 70.496,36.5707538 C70.352,36.9307538 70.208,37.1467538 70.208,37.3627538 C70.136,37.4347538 70.208,37.4347538 70.28,37.4347538 Z M63.9163359,55.0223721 C63.6283359,55.1663721 58.9070502,59.3671753 58.7630502,59.5111753 C58.2590502,59.8711753 57.4670502,60.5191753 57.1070502,60.3751753 C56.6030502,60.0151753 56.6030502,58.8631753 56.6750502,58.2151753 C56.7470502,57.4951753 57.1070502,57.3511753 57.4670502,57.2071753 C58.2590502,56.5591753 58.6190502,56.4151753 58.9790502,55.9831753 C59.4110502,55.8391753 63.4123359,52.2252053 63.9163359,52.0092053 C64.0603359,51.7932053 63.8443359,55.4543721 63.9163359,55.0223721 Z" id="h" fill="#f2c349e6"></path>
        </g>
    </g>
</svg>